<svg width="140" height="140" viewBox="0 0 140 140" fill="none" xmlns="http://www.w3.org/2000/svg">
<circle opacity="0.25" cx="70" cy="70" r="69" fill="#E1E1E1" stroke="white" stroke-width="2"/>
<path d="M40.6445 62.6619C40.6445 74.8186 50.502 84.6761 62.6586 84.6761C64.8649 84.6761 66.9587 84.2504 68.9694 83.6487L74.8887 89.5681H79.7807V94.4601H84.6728V99.3521H99.3488V84.6761L83.6454 68.9727C84.2471 66.962 84.6728 64.8682 84.6728 62.6619C84.6728 50.5053 74.8153 40.6478 62.6586 40.6478C50.502 40.6478 40.6445 50.5053 40.6445 62.6619Z" stroke="#0A0A0A" stroke-width="2.5"/>
<path d="M60.2123 55.3239C58.9149 55.3239 57.6706 55.8393 56.7532 56.7567C55.8357 57.6741 55.3203 58.9184 55.3203 60.2159C55.3203 61.5133 55.8357 62.7576 56.7532 63.6751C57.6706 64.5925 58.9149 65.1079 60.2123 65.1079C61.5098 65.1079 62.7541 64.5925 63.6715 63.6751C64.589 62.7576 65.1044 61.5133 65.1044 60.2159C65.1044 58.9184 64.589 57.6741 63.6715 56.7567C62.7541 55.8393 61.5098 55.3239 60.2123 55.3239Z" stroke="#0A0A0A" stroke-width="2.5"/>
</svg>
